<?xml version="1.0" encoding="UTF-8" ?>
<svg version="1.1" width="128" height="128" xmlns="http://www.w3.org/2000/svg" shape-rendering="crispEdges">
<rect x="48" y="8" width="32" height="4" fill="#000000" />
<rect x="36" y="12" width="16" height="4" fill="#000000" />
<rect x="76" y="12" width="16" height="4" fill="#000000" />
<rect x="32" y="16" width="8" height="4" fill="#000000" />
<rect x="88" y="16" width="8" height="4" fill="#000000" />
<rect x="52" y="20" width="24" height="4" fill="#000000" />
<rect x="44" y="24" width="12" height="4" fill="#000000" />
<rect x="72" y="24" width="12" height="4" fill="#000000" />
<rect x="40" y="36" width="48" height="8" fill="#000000" />
<rect x="20" y="40" width="20" height="8" fill="#000000" />
<rect x="88" y="40" width="20" height="8" fill="#000000" />
<rect x="16" y="44" width="4" height="8" fill="#000000" />
<rect x="40" y="44" width="4" height="16" fill="#5B6EE1" />
<rect x="44" y="44" width="40" height="12" fill="#262626" />
<rect x="84" y="44" width="4" height="16" fill="#5B6EE1" />
<rect x="108" y="44" width="4" height="8" fill="#000000" />
<rect x="12" y="48" width="4" height="16" fill="#000000" />
<rect x="20" y="48" width="4" height="4" fill="#262626" />
<rect x="24" y="48" width="4" height="4" fill="#000000" />
<rect x="28" y="48" width="4" height="4" fill="#262626" />
<rect x="32" y="48" width="8" height="4" fill="#000000" />
<rect x="88" y="48" width="8" height="4" fill="#000000" />
<rect x="96" y="48" width="4" height="4" fill="#262626" />
<rect x="100" y="48" width="4" height="4" fill="#000000" />
<rect x="104" y="48" width="4" height="4" fill="#262626" />
<rect x="112" y="48" width="4" height="16" fill="#000000" />
<rect x="16" y="52" width="4" height="4" fill="#262626" />
<rect x="20" y="52" width="4" height="4" fill="#000000" />
<rect x="24" y="52" width="4" height="4" fill="#262626" />
<rect x="28" y="52" width="4" height="4" fill="#000000" />
<rect x="32" y="52" width="4" height="4" fill="#262626" />
<rect x="36" y="52" width="4" height="4" fill="#000000" />
<rect x="88" y="52" width="4" height="4" fill="#000000" />
<rect x="92" y="52" width="4" height="4" fill="#262626" />
<rect x="96" y="52" width="4" height="4" fill="#000000" />
<rect x="100" y="52" width="4" height="4" fill="#262626" />
<rect x="104" y="52" width="4" height="4" fill="#000000" />
<rect x="108" y="52" width="4" height="4" fill="#262626" />
<rect x="8" y="56" width="4" height="24" fill="#000000" />
<rect x="16" y="56" width="4" height="4" fill="#000000" />
<rect x="20" y="56" width="4" height="4" fill="#262626" />
<rect x="24" y="56" width="4" height="4" fill="#000000" />
<rect x="28" y="56" width="4" height="4" fill="#262626" />
<rect x="32" y="56" width="4" height="8" fill="#000000" />
<rect x="36" y="56" width="4" height="24" fill="#5B6EE1" />
<rect x="44" y="56" width="8" height="4" fill="#262626" />
<rect x="52" y="56" width="24" height="8" fill="#000000" />
<rect x="76" y="56" width="8" height="4" fill="#262626" />
<rect x="88" y="56" width="4" height="24" fill="#5B6EE1" />
<rect x="92" y="56" width="4" height="8" fill="#000000" />
<rect x="96" y="56" width="4" height="4" fill="#262626" />
<rect x="100" y="56" width="4" height="4" fill="#000000" />
<rect x="104" y="56" width="4" height="4" fill="#262626" />
<rect x="108" y="56" width="4" height="4" fill="#000000" />
<rect x="116" y="56" width="4" height="24" fill="#000000" />
<rect x="16" y="60" width="4" height="4" fill="#262626" />
<rect x="20" y="60" width="4" height="4" fill="#000000" />
<rect x="24" y="60" width="4" height="4" fill="#262626" />
<rect x="28" y="60" width="4" height="12" fill="#000000" />
<rect x="40" y="60" width="8" height="16" fill="#262626" />
<rect x="48" y="60" width="4" height="16" fill="#000000" />
<rect x="76" y="60" width="4" height="16" fill="#000000" />
<rect x="80" y="60" width="8" height="16" fill="#262626" />
<rect x="96" y="60" width="4" height="12" fill="#000000" />
<rect x="100" y="60" width="4" height="4" fill="#262626" />
<rect x="104" y="60" width="4" height="4" fill="#000000" />
<rect x="108" y="60" width="4" height="4" fill="#262626" />
<rect x="12" y="64" width="4" height="4" fill="#262626" />
<rect x="16" y="64" width="4" height="4" fill="#000000" />
<rect x="20" y="64" width="4" height="4" fill="#262626" />
<rect x="24" y="64" width="4" height="4" fill="#000000" />
<rect x="32" y="64" width="4" height="8" fill="#5B6EE1" />
<rect x="52" y="64" width="8" height="16" fill="#000000" />
<rect x="60" y="64" width="8" height="8" fill="#CBDBFC" />
<rect x="68" y="64" width="8" height="16" fill="#000000" />
<rect x="92" y="64" width="4" height="8" fill="#5B6EE1" />
<rect x="100" y="64" width="4" height="4" fill="#000000" />
<rect x="104" y="64" width="4" height="4" fill="#262626" />
<rect x="108" y="64" width="4" height="4" fill="#000000" />
<rect x="112" y="64" width="4" height="4" fill="#262626" />
<rect x="12" y="68" width="4" height="4" fill="#000000" />
<rect x="16" y="68" width="4" height="4" fill="#262626" />
<rect x="20" y="68" width="4" height="4" fill="#000000" />
<rect x="24" y="68" width="4" height="4" fill="#262626" />
<rect x="100" y="68" width="4" height="4" fill="#262626" />
<rect x="104" y="68" width="4" height="4" fill="#000000" />
<rect x="108" y="68" width="4" height="4" fill="#262626" />
<rect x="112" y="68" width="4" height="4" fill="#000000" />
<rect x="12" y="72" width="4" height="4" fill="#262626" />
<rect x="16" y="72" width="4" height="4" fill="#000000" />
<rect x="20" y="72" width="4" height="4" fill="#262626" />
<rect x="24" y="72" width="4" height="4" fill="#000000" />
<rect x="28" y="72" width="4" height="4" fill="#262626" />
<rect x="32" y="72" width="4" height="12" fill="#000000" />
<rect x="60" y="72" width="8" height="8" fill="#000000" />
<rect x="92" y="72" width="4" height="12" fill="#000000" />
<rect x="96" y="72" width="4" height="4" fill="#262626" />
<rect x="100" y="72" width="4" height="4" fill="#000000" />
<rect x="104" y="72" width="4" height="4" fill="#262626" />
<rect x="108" y="72" width="4" height="4" fill="#000000" />
<rect x="112" y="72" width="4" height="4" fill="#262626" />
<rect x="12" y="76" width="4" height="12" fill="#000000" />
<rect x="16" y="76" width="4" height="4" fill="#262626" />
<rect x="20" y="76" width="4" height="4" fill="#000000" />
<rect x="24" y="76" width="4" height="4" fill="#262626" />
<rect x="28" y="76" width="4" height="4" fill="#000000" />
<rect x="40" y="76" width="4" height="16" fill="#5B6EE1" />
<rect x="44" y="76" width="8" height="16" fill="#262626" />
<rect x="76" y="76" width="8" height="16" fill="#262626" />
<rect x="84" y="76" width="4" height="16" fill="#5B6EE1" />
<rect x="96" y="76" width="4" height="4" fill="#000000" />
<rect x="100" y="76" width="4" height="4" fill="#262626" />
<rect x="104" y="76" width="4" height="4" fill="#000000" />
<rect x="108" y="76" width="4" height="4" fill="#262626" />
<rect x="112" y="76" width="4" height="12" fill="#000000" />
<rect x="16" y="80" width="4" height="16" fill="#000000" />
<rect x="20" y="80" width="4" height="4" fill="#262626" />
<rect x="24" y="80" width="4" height="4" fill="#000000" />
<rect x="28" y="80" width="4" height="4" fill="#262626" />
<rect x="36" y="80" width="4" height="20" fill="#000000" />
<rect x="52" y="80" width="24" height="12" fill="#262626" />
<rect x="88" y="80" width="4" height="20" fill="#000000" />
<rect x="96" y="80" width="4" height="4" fill="#262626" />
<rect x="100" y="80" width="4" height="4" fill="#000000" />
<rect x="104" y="80" width="4" height="4" fill="#262626" />
<rect x="108" y="80" width="4" height="16" fill="#000000" />
<rect x="20" y="84" width="4" height="4" fill="#000000" />
<rect x="24" y="84" width="4" height="4" fill="#262626" />
<rect x="28" y="84" width="4" height="4" fill="#000000" />
<rect x="32" y="84" width="4" height="4" fill="#262626" />
<rect x="92" y="84" width="4" height="4" fill="#262626" />
<rect x="96" y="84" width="4" height="4" fill="#000000" />
<rect x="100" y="84" width="4" height="4" fill="#262626" />
<rect x="104" y="84" width="4" height="4" fill="#000000" />
<rect x="20" y="88" width="4" height="4" fill="#262626" />
<rect x="24" y="88" width="4" height="12" fill="#000000" />
<rect x="28" y="88" width="4" height="4" fill="#262626" />
<rect x="32" y="88" width="4" height="12" fill="#000000" />
<rect x="92" y="88" width="4" height="12" fill="#000000" />
<rect x="96" y="88" width="4" height="4" fill="#262626" />
<rect x="100" y="88" width="4" height="12" fill="#000000" />
<rect x="104" y="88" width="4" height="4" fill="#262626" />
<rect x="20" y="92" width="4" height="8" fill="#000000" />
<rect x="28" y="92" width="4" height="8" fill="#000000" />
<rect x="40" y="92" width="48" height="8" fill="#000000" />
<rect x="96" y="92" width="4" height="8" fill="#000000" />
<rect x="104" y="92" width="4" height="8" fill="#000000" />
<rect x="44" y="100" width="40" height="4" fill="#000000" />
<rect x="48" y="104" width="32" height="4" fill="#000000" />
</svg>